# xmcd
# 
# Track frame offsets:
#     150
#     11826
#     27747
#     43596
#     61856
#     77144
#     95569
# 
# Disc length: 1506
# 
# Revision: 7
# Processed by: cddbd v1.5.2PL0 Copyright (c) Steve Scherf et al.
# Submitted via: fre:ac v1.0.17
# 
DISCID=5605e007
DTITLE=打首獄門同好会 - まだまだ新米
DYEAR=0
DGENRE=Rock
TTITLE0=TAVEMONO NO URAMI
TTITLE1=日本の米は世界一
TTITLE2=だいたいOKです
TTITLE3=猫の惑星
TTITLE4=ナイスフォロー
TTITLE5=New Gingerration
TTITLE6=だから貯金がたまらない
EXTD=
EXTT0=
EXTT1=
EXTT2=
EXTT3=
EXTT4=
EXTT5=
EXTT6=
PLAYORDER=
